Coordinates
version=1
nRows=8
nColumns=27
inDegrees=yes

Units are S.I. units (second, meters, Newtons, ...)
If the header above contains a line with 'inDegrees', this indicates whether rotational values are in degrees (yes) or radians (no).

endheader
time	pelvis_rotation	pelvis_tilt	pelvis_list	pelvis_tx	pelvis_ty	pelvis_tz	hip_flexion_r	hip_adduction_r	hip_rotation_r	knee_angle_r	knee_rotation_r	knee_adduction_r	knee_angle_r_beta	ankle_angle_r	subtalar_angle_r	mtp_angle_r	hip_flexion_l	hip_adduction_l	hip_rotation_l	knee_angle_l	knee_rotation_l	knee_adduction_l	knee_angle_l_beta	ankle_angle_l	subtalar_angle_l	mtp_angle_l
      4.26000000	     10.96997472	    -41.84393077	      7.64718177	     -0.08367092	      0.55625410	     -1.17628318	    126.02223330	    -43.29958827	      5.79006859	     93.12332597	     -9.70751639	      9.57692019	      1.62530865	     10.30368541	     -0.78323734	      0.00000000	    118.59687174	    -27.45970370	     -3.57122077	     85.65201978	     -9.72304266	     -9.79316766	      1.49490976	      7.78774254	     15.65351256	      0.00000000
      4.26500000	     10.94757900	    -41.90904555	      7.65497844	     -0.08424016	      0.55760317	     -1.17653418	    125.86419533	    -43.24912099	      5.61304428	     92.85381089	     -9.70422109	      9.56930241	      1.62060472	     10.14255334	     -0.88286394	      0.00000000	    118.45889237	    -27.38450959	     -3.67497642	     85.41669169	     -9.72005495	     -9.79194218	      1.49080251	      7.72287869	     15.54771913	      0.00000000
      4.27000000	     10.94570392	    -41.93220343	      7.69643574	     -0.08486612	      0.55896451	     -1.17676390	    125.68340641	    -43.19926585	      5.47503285	     92.57816651	     -9.70081896	      9.56500273	      1.61579382	     10.05416885	     -0.86992508	      0.00000000	    118.26524033	    -27.29433029	     -3.81909096	     85.16770828	     -9.71691070	     -9.79038447	      1.48645693	      7.61232612	     15.42597994	      0.00000000
      4.27500000	     10.31441046	    -41.97010361	      7.63665028	     -0.08563821	      0.55990805	     -1.17667393	    125.48756556	    -42.40830728	      5.69154808	     92.36088882	     -9.44236451	      9.20685156	      1.61200161	      9.98778070	     -0.63799364	      0.00000000	    118.04944362	    -27.92243366	     -3.79127435	     85.01950716	     -9.47090053	     -9.60766337	      1.48387033	      7.55243163	     15.54940629	      0.00000000
      4.28000000	     11.01023015	    -42.03830228	      7.75483202	     -0.08593391	      0.56156451	     -1.17724769	    125.38464402	    -43.21533772	      5.17293444	     92.06568483	     -9.69348437	      9.55456940	      1.60684933	      9.88990426	     -0.81482217	      0.00000000	    117.99222273	    -27.05820154	     -4.03880428	     84.70799395	     -9.70896700	     -9.78692337	      1.47843340	      7.42028363	     15.22836660	      0.00000000
      4.28500000	     10.26904421	    -42.02891399	      7.66983650	     -0.08672431	      0.56250422	     -1.17709769	    125.12051973	    -42.30013444	      5.39036546	     91.83695893	     -9.43118091	      9.18710861	      1.60285731	      9.77559142	     -0.68741815	      0.00000000	    117.70153544	    -27.79849257	     -4.02733446	     84.55363808	     -9.45900334	     -9.60207359	      1.47573938	      7.37641776	     15.40735850	      0.00000000
      4.29000000	     11.01828608	    -42.11835502	      7.77847601	     -0.08702536	      0.56411896	     -1.17765521	    125.02866045	    -43.16762919	      4.84375732	     91.54988123	     -9.68642673	      9.54378678	      1.59784686	      9.70904886	     -0.83365927	      0.00000000	    117.69585725	    -26.87164177	     -4.23536412	     84.24227024	     -9.70145105	     -9.78346144	      1.47030499	      7.24719110	     15.06187435	      0.00000000
      4.29500000	     10.99162370	    -42.13142335	      7.80526536	     -0.08754662	      0.56537482	     -1.17782383	    124.84515729	    -43.10113950	      4.70790241	     91.29981626	     -9.68234016	      9.53670226	      1.59348240	      9.60755054	     -0.85947909	      0.00000000	    117.50557301	    -26.82675930	     -4.36681762	     84.01001859	     -9.69812247	     -9.78210640	      1.46625143	      7.16039937	     14.99807080	      0.00000000
